PathFileType	4	(X/Y/Z)	C:\Users\WrightLab\Desktop\Jo\P5V43.trc
DataRate	CameraRate	NumFrames	NumMarkers	Units	OrigDataRate	OrigDataStartFrame	OrigNumFrames
100.00	100.00	       22	19	mm	100.00	323	       860
Frame#	Time	Headset_Front			Headset_Back			Headset_Left			Headset_Right			Left_Shoulder			Right_Shoulder			Sternum			C7			Left Elbow			Right Elbow			Left Wrist			Right Wrist			Left ASIS			Right ASIS			S2			Left Knee			Right Knee			Left Ankle			Right Ankle			
		X1	Y1	Z1	X2	Y2	Z2	X3	Y3	Z3	X4	Y4	Z4	X5	Y5	Z5	X6	Y6	Z6	X7	Y7	Z7	X8	Y8	Z8	X9	Y9	Z9	X10	Y10	Z10	X11	Y11	Z11	X12	Y12	Z12	X13	Y13	Z13	X14	Y14	Z14	X15	Y15	Z15	X16	Y16	Z16	X17	Y17	Z17	X18	Y18	Z18	X19	Y19	Z19	

323	3.220	-629.67560	1405.41589	-927.85931	-467.21066	1687.53210	-829.83759				-570.30054	1481.95349	-772.09595	-462.83002	1397.27600	-711.18878				-439.36810	1265.11487	-873.49866	-442.54660	1492.18005	-1056.75671				-702.82361	1122.62732	-891.77600	-159.59929	923.89673	-890.81140	-648.47937	972.32623	-694.75873	-289.45679	877.56152	-871.17010	-582.13837	894.33734	-900.96332	-391.47247	943.93158	-1154.50977	-280.25949	460.38284	-876.46741	-668.91205	470.22998	-976.40729	-92.71420	94.48390	-1056.91504				
324	3.230	-636.80084	1407.01331	-925.79303	-473.39816	1688.20605	-828.35486				-575.88550	1482.78418	-768.72479	-468.46274	1398.40808	-708.00867				-448.11993	1265.57092	-870.94141	-448.72842	1492.16321	-1054.64673				-709.39539	1123.08179	-890.54645	-168.21480	923.99609	-889.48285	-654.97107	971.95776	-695.33447	-298.24219	877.31232	-868.22034	-590.71832	895.54608	-900.03918	-399.43631	943.74445	-1152.78723	-290.12134	459.43964	-869.63837	-675.36902	472.79318	-978.02692	-96.15335	99.40290	-1056.89429				
325	3.240	-643.27795	1407.29626	-923.70636	-479.50763	1688.28503	-826.13416				-581.30969	1482.87646	-765.87115							-456.08704	1265.24084	-869.05310	-454.67676	1492.45862	-1052.39258				-715.31921	1123.21619	-888.80890	-175.05173	925.44562	-887.45709	-661.01355	971.45062	-695.81812	-307.62585	876.73517	-866.98163	-599.62408	896.29480	-899.48865	-406.82718	945.14270	-1152.86584	-301.39633	457.20459	-862.27081	-680.77051	474.23276	-979.99402	-101.62061	102.49222	-1054.41223				
326	3.250	-650.15082	1408.18823	-922.58051	-485.18210	1688.91541	-824.18610				-587.30859	1482.79810	-762.67004	-477.76752	1399.69690	-699.31964				-464.46527	1265.71851	-867.30444	-460.55673	1492.31750	-1049.85156				-721.64435	1124.54272	-888.66400	-181.69139	926.53699	-884.89282	-666.97876	971.81073	-696.30347	-316.45569	877.36389	-865.40509	-609.12518	897.68677	-898.04962	-414.33627	944.80664	-1151.13623	-313.36783	455.97183	-854.29401	-687.31067	475.43112	-981.25989	-105.25249	107.75961	-1052.31824				
327	3.260	-656.77020	1408.75281	-920.20880	-490.64902	1689.44287	-822.19641				-592.91144	1483.74500	-760.01990	-486.03763	1400.39880	-698.76099				-473.11853	1264.45020	-871.17902	-466.28094	1492.36743	-1047.18018				-728.56482	1124.54724	-888.05164	-189.57759	927.22382	-883.67358	-672.25671	971.75269	-696.82666	-325.42303	877.10901	-863.47186	-616.04657	897.82721	-897.24121	-421.25528	945.45288	-1150.37415	-325.78055	455.55396	-845.14771	-693.65637	476.02930	-983.66345	-113.31869	112.96568	-1050.27856				
328	3.270	-663.21521	1409.45081	-917.52545	-495.71884	1689.53992	-819.72119				-599.32837	1485.11133	-756.82062	-490.69281	1401.31702	-695.19568				-479.81799	1264.40918	-869.35034	-471.63425	1492.91345	-1044.32886				-736.01849	1125.26282	-888.01904	-198.44450	927.98108	-881.69019	-678.12762	971.19598	-696.08942	-333.13849	876.26709	-861.27618	-624.89294	897.82959	-896.28064	-427.76053	946.20758	-1148.87341	-339.57260	454.60077	-836.90948	-700.24512	477.72565	-986.11945	-121.43950	119.68311	-1049.74561				
329	3.280	-669.60803	1410.36560	-915.50256	-500.45480	1690.29260	-817.92731				-604.73480	1486.34387	-753.80408	-497.70123	1401.70630	-691.98279				-485.06354	1264.53882	-866.00745	-477.27539	1492.85571	-1041.78784				-743.67981	1125.67834	-887.89349	-205.74806	928.90228	-880.23938	-683.39655	970.20862	-695.89789	-341.63806	875.67230	-859.74152	-632.70941	897.63092	-894.50372	-434.09164	947.37543	-1148.78723	-351.84470	454.66296	-827.72278	-704.54071	475.67496	-987.82721	-130.96852	126.18264	-1046.91370				
330	3.290	-674.02399	1409.63293	-912.82703	-504.91690	1690.37903	-815.76770				-610.32556	1488.26782	-750.90442	-502.89310	1402.88904	-688.62201				-491.33118	1263.25537	-865.66797	-482.46005	1493.34045	-1039.23828				-749.93658	1125.88220	-885.63300	-213.02061	929.81091	-878.74579	-689.76569	970.20190	-696.72180	-349.55893	875.19177	-858.03168	-639.95172	897.32672	-893.72870				-365.35345	454.51883	-820.99628	-710.77142	476.21735	-990.81439	-138.53911	133.99899	-1044.43408				
331	3.300	-679.26868	1410.96729	-910.09412	-509.13281	1690.85815	-814.27448				-615.58459	1489.33301	-747.46759							-496.24069	1263.77380	-863.72644	-487.56769	1493.77673	-1036.24902				-755.80243	1126.23743	-884.63416	-220.30479	931.42987	-877.57880	-696.76520	970.98578	-696.50964	-356.58118	875.11597	-855.95209	-646.65076	897.64429	-892.13965				-378.33054	454.62415	-813.52234	-716.46893	476.12387	-993.46362	-147.71127	141.39156	-1043.17273				
332	3.310	-683.68237	1410.75464	-907.51898	-512.95135	1691.47314	-811.79211				-620.45502	1490.13855	-744.49005							-500.58594	1264.61365	-858.16608	-492.44336	1494.44678	-1033.02905				-762.08929	1127.10962	-883.53705	-225.59660	931.62787	-876.11719	-701.87384	970.36969	-697.22229	-362.87231	874.70227	-853.46985	-653.05292	897.34985	-890.47894				-391.50406	455.14719	-806.91809	-721.29504	475.97488	-995.86060							
333	3.320	-687.90527	1411.92651	-904.83997	-516.79395	1691.84753	-809.09906				-625.45624	1491.26062	-741.52008							-506.04672	1263.68640	-858.74701	-497.44342	1494.59705	-1030.15588				-767.94855	1127.84033	-882.69232	-232.97054	932.49677	-876.46515	-706.74506	969.78705	-695.96094	-370.27811	874.55249	-851.56836	-660.30225	898.43219	-888.54224				-404.65176	456.61777	-802.91675	-726.48566	476.04419	-997.84814	-169.92992	153.31253	-1035.75781				
334	3.330	-692.44104	1411.79346	-902.20093	-520.41241	1692.57727	-806.03717				-629.85992	1492.87305	-738.50800							-510.57065	1263.00085	-855.26288	-502.16742	1495.45203	-1027.10767				-772.42920	1128.41125	-881.80670	-239.47995	933.16852	-874.31506	-711.99286	969.90942	-696.73889	-376.90836	874.41010	-850.22083	-666.15839	898.47931	-886.52710				-415.15106	459.21973	-795.40619	-731.26074	477.37286	-1001.16229	-179.38107	160.98302	-1033.98071				
335	3.340	-697.89850	1412.86182	-899.74536	-523.97388	1692.88867	-803.30908				-634.32898	1494.28943	-734.87811							-515.17755	1263.59131	-852.66827	-506.90839	1496.34460	-1024.06726				-778.68738	1129.17358	-879.60468	-245.95088	933.88519	-872.77435	-717.24268	969.09924	-696.01770	-382.15103	875.26349	-848.47729	-669.93085	898.07196	-884.39728				-426.35046	460.72162	-790.70752	-736.03442	477.66284	-1002.14709	-192.68443	165.95970	-1029.55762				
336	3.350	-703.19489	1414.00281	-896.52356	-527.36853	1693.46790	-800.32806				-637.91888	1494.98157	-731.30566							-518.79926	1263.37842	-848.74323	-511.80557	1496.55017	-1021.42053				-783.84381	1129.88220	-878.40869	-251.74918	933.24689	-871.27155	-721.95837	968.96667	-694.23462	-388.39319	875.31952	-846.67841	-675.79120	899.01776	-882.27625				-437.25754	462.59470	-785.75348	-740.93005	479.08243	-1004.15540	-204.42178	171.39050	-1026.27502				
337	3.360	-707.74103	1413.83167	-893.82617	-530.65240	1693.92480	-796.47308				-641.65436	1495.87219	-727.33942	-303.33243	1462.68237	-886.11261				-521.72510	1264.68933	-844.87915	-516.36340	1496.96606	-1017.75787				-789.10187	1130.86023	-878.25787	-257.94168	933.85077	-870.24060	-727.53986	969.07507	-695.02466	-395.11020	875.61951	-846.00555	-680.26355	900.19031	-878.85443				-447.84219	464.34662	-782.13721	-745.27429	479.42557	-1004.77209	-217.82095	176.64948	-1023.02570				
338	3.370	-712.35266	1414.25757	-889.98230	-533.95306	1694.31750	-793.39655				-645.59052	1497.27197	-724.10736	-307.77023	1462.77942	-883.17090				-527.50861	1263.69116	-845.25708	-521.13556	1497.46814	-1014.96771				-794.01245	1131.53418	-876.61401	-265.26645	931.79297	-872.07550	-732.90173	969.78717	-693.85083	-399.20908	876.27850	-842.85614	-684.85339	900.81970	-877.10681				-458.55630	465.85263	-779.27905	-750.08807	480.34445	-1005.14465	-230.50235	179.90887	-1019.28729				
339	3.380	-717.90778	1415.21680	-887.72028	-537.03430	1695.17712	-790.46008				-649.30841	1497.80908	-720.57996	-312.35709	1463.21179	-879.84180				-531.10907	1264.00842	-841.04425	-525.85144	1498.04395	-1011.80682				-799.08020	1131.83008	-874.38855	-270.44086	931.20764	-870.96857	-737.44647	968.62390	-692.16974	-405.05951	876.92926	-842.39325	-687.76294	900.27399	-874.44574				-468.18115	466.73984	-775.93353	-753.54871	480.37332	-1004.53613	-244.05545	183.81906	-1013.99628				
340	3.390	-722.55658	1414.94360	-883.76068	-540.03320	1695.38940	-786.82532				-652.22241	1498.21948	-716.07007							-536.49097	1264.88538	-837.71936	-530.40668	1498.51855	-1008.39166				-804.25928	1131.76135	-872.12262	-276.11362	932.09290	-869.52863	-743.32562	969.25757	-691.19153	-410.49564	877.76599	-841.62299	-690.54205	899.49017	-872.46667				-477.29041	467.61487	-773.41315	-757.39545	480.96640	-1003.77081	-260.30072	185.43129	-1009.80334				
341	3.400	-726.98602	1415.43823	-879.89960	-543.03308	1696.01941	-784.29669				-654.76819	1499.09473	-711.69244							-539.35492	1264.87109	-832.79797	-535.04999	1498.64795	-1005.12262				-809.30981	1132.70190	-870.97552	-280.06854	931.30261	-868.22919	-746.95587	968.04810	-688.90497	-414.19394	878.38086	-838.60211	-695.34821	900.25854	-870.15814				-486.01227	468.57159	-769.58594	-760.66296	480.56882	-1002.19061	-276.19913	188.62718	-1005.65942				
342	3.410	-731.33679	1414.62524	-876.56232	-545.93854	1696.31543	-780.36426				-657.93005	1499.83936	-706.98767	-324.64194	1463.05994	-871.55164				-543.07764	1265.24939	-829.70325	-539.59039	1498.86609	-1001.63171				-814.40863	1131.90295	-867.45184	-285.73441	930.98694	-867.67047	-752.24359	968.11682	-688.10876	-418.22382	879.07275	-835.77588	-697.20892	900.04852	-868.23749				-495.12836	470.12308	-765.75079	-763.25836	481.18558	-1001.10248	-291.12534	190.15318	-1000.46234				
343	3.420	-734.22852	1414.71741	-872.89697	-548.71588	1696.60315	-777.29266				-660.30420	1500.60083	-702.50220	-328.88177	1463.36975	-867.99341				-548.10010	1263.92529	-828.98865	-543.92804	1498.99902	-998.29437				-819.33386	1132.39282	-866.03857	-289.08743	930.32245	-865.84058	-756.31195	967.61432	-685.49084	-422.67294	879.08221	-833.80774	-700.68427	900.78400	-865.73828				-502.68716	473.69589	-761.77460	-765.68848	481.52609	-998.73071	-307.46396	190.79855	-996.58893				
344	3.430	-738.78314	1414.31372	-869.28894	-551.71832	1696.50037	-774.18414				-662.58246	1501.26807	-698.01904							-551.12445	1264.40308	-822.42511	-548.14203	1499.07617	-994.51544				-823.58014	1132.61426	-862.97919	-293.07663	929.79944	-864.25500	-761.85773	967.74127	-684.53467	-425.92444	880.46857	-829.87152	-702.21271	899.85675	-863.67944				-510.96851	476.55624	-757.32343	-765.71326	480.19812	-996.18317	-324.48514	191.26895	-991.48615				
